<svg version="1.2" xmlns="http://www.w3.org/2000/svg" viewBox="0 0 1800 1800" width="1800" height="1800"><style>.a{fill:#fff}</style><path class="a" d="m938.3 991.1c3.4-60 32.8-112.9 77.1-150.4 43.5-36.8 102.1-59.3 166-59.3 63.8 0 122.3 22.5 165.9 59.3 44.3 37.5 73.7 90.4 77.1 150.4 3.3 61.7-21.5 119-65 161.4-44.3 43.3-107.4 70.4-178 70.4-70.7 0-133.9-27.1-178.2-70.4-43.5-42.4-68.3-99.7-64.9-161.4z"/><path fill-rule="evenodd" class="a" d="m556 1050.1l-352.8 288.7c-61.6 49.8-144.5 49.7-183.5-0.2-38.4-49.2-18.7-126.8 42.3-173.5 0.7-0.7 1.6-1.3 2.4-1.9l646.6-496.3-362.3 0.7 0.1-0.2c-61.5-0.2-101.6-41.6-90.1-91.5 11.3-49 68.1-87.8 127.2-87.8 0.2 0 0.6 0 0.9 0l714.8-0.8-234.5-190.7 0.2-0.2c-36.5-29.9-31.8-77.4 9.2-106.1 40.6-28.4 102.6-28.4 139.5-0.1 0.5 0.3 0.9 0.7 1.4 1.1l562.4 431.8-0.2 0.1c55.7 43.2 102.6 94.5 139 153.2 39.7 63.8 65.5 133.8 76.1 208.4 5.5 38.3 6.7 76.6 3.7 114.8-3 38.9-10.5 77.6-22.4 115.7-23.7 75.5-63.7 145.4-119.4 207.2-57.1 63.3-127.5 114.3-208.9 150.7-85.5 38.2-178.2 57.9-274.3 58-96.3 0.1-188.9-19.2-274.5-57-81.3-36.1-151.8-86.9-209-150.1-55.8-61.6-95.8-131.4-119.4-206.9-11.3-35.6-18.8-81.3-19.2-104.8-0.4-23.4 4.7-62.3 4.7-62.3zm979.7 70.9c15.8-43.4 21.9-89.4 17.9-135.8-4-45.6-17.4-88.7-39.1-127.9-21.2-38.5-50.4-73.2-86.4-102.5-70.7-57.4-160.7-88.3-254.9-88.2-94.1 0.1-184 31.3-254.7 88.9-36.1 29.5-65.3 64.3-86.5 102.8-21.6 39.2-35.1 82.6-39 128-4 46.5 2.1 92.6 17.9 136 16.1 44.1 42.2 85.6 77.7 121.6 72.7 74 174.5 115.6 284.8 115.4 110.1-0.2 211.9-42.2 284.6-116.3 35.6-36.2 61.6-77.7 77.7-122z"/></svg>