<svg version="1.2" xmlns="http://www.w3.org/2000/svg" viewBox="0 0 256 257" width="1020" height="1024">
	<title>discord-icon-svgrepo-com-svg</title>
	<style>
		.s0 { fill: #ffffff } 
	</style>
	<g id="Layer">
		<path id="Layer" fill-rule="evenodd" class="s0" d="m254.9 194c-22.2 16.5-43.7 26.6-64.8 33.2-5.2-7.2-9.9-14.9-13.9-22.9 7.7-2.9 15-6.5 21.9-10.6q-2.7-2.1-5.3-4.3c-41.7 19.7-87.4 19.7-129.6 0q-2.6 2.2-5.3 4.3c6.9 4.1 14.2 7.7 21.8 10.6-4 8-8.6 15.7-13.8 22.8-21.2-6.5-42.6-16.6-64.8-33.1-4.5-48.6 4.5-97.9 37.9-148.4 16.6-7.7 34.4-13.4 52.9-16.6 2.3 4.1 5 9.6 6.8 14q29-4.4 58.6 0c1.8-4.4 4.5-9.9 6.7-14 18.6 3.2 36.3 8.8 52.9 16.6 28.9 43.3 43.3 92.1 38 148.4zm-146.4-56.1c0.2-14.4-10.2-26.2-23-26.2-12.9 0-23 11.8-23 26.2 0 14.4 10.3 26.2 23 26.2 12.8 0 23-11.8 23-26.2zm85 0c0.3-14.4-10.1-26.2-23-26.2-12.8 0-23 11.8-23 26.2 0 14.4 10.4 26.2 23 26.2 12.9 0 23-11.8 23-26.2z"/>
	</g>
</svg>