<svg version="1.2" xmlns="http://www.w3.org/2000/svg" viewBox="0 0 1024 1024" width="1024" height="1024">
	<title>New Project</title>
	<style>
		.s0 { fill: #ffffff } 
		.s1 { fill: #ff5e5b } 
	</style>
	<path id="Rectangle-2" fill-rule="evenodd" class="s0" d="m790.7 183c128.8 0 233.3 104.5 233.3 233.3v13.7c0 128.9-104.5 233.4-233.3 233.4h-66.8v70.2c0 59.5-48.3 107.7-107.7 107.7h-508.5c-59.5 0-107.7-48.2-107.7-107.7v-496.8c0-29.7 24.1-53.8 53.8-53.8zm-66.8 124.5v231.3h60.9c63.9 0 115.7-51.7 115.7-115.6 0-63.9-51.8-115.7-115.7-115.7z"/>
	<path id="Path-2" class="s1" d="m347.4 402.3q25-73 118.3-73c93.3 0 127.9 116.1 79 192q-48.9 75.9-197.3 192-148.3-116.1-197.2-192c-49-75.9-14.4-192 79-192q93.3 0 118.2 73z"/>
</svg>