<svg version="1.2" xmlns="http://www.w3.org/2000/svg" viewBox="0 0 1024 1024" width="1024" height="1024"><style>.a{fill:#fff}</style><path fill-rule="evenodd" class="a" d="m1019.7 630.1c-14.5 70-79.1 249.5-284.8 346.6l-82.5-92.9-139.3 140.2c-39.5-0.5-78.9-5.6-117.2-15.1-38.4-9.5-75.6-23.5-110.7-41.6-35.2-18.1-68.1-40.1-98.3-65.5-30.1-25.7-57.2-54.6-80.7-86.5q5.6 1.8 11.2 3.1 5.8 1.5 11.5 2.5 5.6 1.2 11.3 1.8 6 0.8 11.7 1.2c22.9 0.5 47.5-7.9 47.5-46.4v-377.9c0.3-9.7-1.6-19.4-5.7-28.3-4-8.8-10.1-16.5-17.8-22.6-7.6-6.1-16.4-10.2-26-12.2-9.5-2-19.3-1.8-28.9 0.8-64.4 14.8-116 175.7-116 175.7-0.3-37 3.3-74 11-110.3 7.6-36.3 19.1-71.6 34.4-105.3 15.3-33.8 34.1-65.9 56.3-95.6 22.2-29.8 47.5-56.9 75.6-81.2 96-81.3 189.8-109.4 261.1-120.6-70.3 40.3-109.9 105.7-109.9 160.7 0 88.2 53.2 77.7 69 64.7v510.4q1 2.5 2.1 4.8 1.2 2.3 2.5 4.6 1.3 2.1 2.6 4.4 1.5 2.1 3.1 4.1c3.5 4.9 7.6 9.4 12.2 13.3 4.4 3.8 9.5 7.2 14.8 9.9 5.4 2.6 11 4.7 16.9 6.1q8.9 1.9 17.8 1.9c53.4 0 122.5-60.8 122.5-60.8v-413.2c0-42.1-31.7-92.9-63.4-110.3 0 0 58.8-10.3 104.2 24.3q3.1-3.9 6.4-7.7 3.3-3.8 6.7-7.5 3.5-3.8 6.9-7.4 3.5-3.6 7.1-7.3c105.5-103.6 205.2-133.1 288-147.8 0 0-151 118.6-151 277.5 0 118.3 3.2 406.8 3.2 406.8 56.2 53.9 139.3-24 214.6-101.4z"/></svg>